<mxfile host="app.diagrams.net" modified="2020-09-14T03:39:29.471Z" agent="5.0 (Windows NT 10.0; Win64; x64) AppleWebKit/537.36 (KHTML, like Gecko) Chrome/85.0.4183.102 Safari/537.36" etag="FBYLafLuRbIdEb0N6Bvr" version="13.6.9" type="github">
  <diagram id="pEGtzcf9TQ4Z2Dbqe9Ck" name="Page-1">
    <mxGraphModel dx="1422" dy="794" grid="1" gridSize="10" guides="1" tooltips="1" connect="1" arrows="1" fold="1" page="1" pageScale="1" pageWidth="850" pageHeight="1100" math="0" shadow="0">
      <root>
        <mxCell id="0" />
        <mxCell id="1" parent="0" />
        <mxCell id="k6hbue_MvojI3MIXq5zp-29" style="edgeStyle=orthogonalEdgeStyle;rounded=0;orthogonalLoop=1;jettySize=auto;html=1;exitX=0;exitY=1;exitDx=0;exitDy=0;" edge="1" parent="1" source="k6hbue_MvojI3MIXq5zp-7" target="k6hbue_MvojI3MIXq5zp-9">
          <mxGeometry relative="1" as="geometry" />
        </mxCell>
        <mxCell id="k6hbue_MvojI3MIXq5zp-7" value="User Starts CLI" style="ellipse;whiteSpace=wrap;html=1;" vertex="1" parent="1">
          <mxGeometry x="140" y="90" width="120" height="80" as="geometry" />
        </mxCell>
        <mxCell id="k6hbue_MvojI3MIXq5zp-9" value="Greeting" style="shape=step;perimeter=stepPerimeter;whiteSpace=wrap;html=1;fixedSize=1;" vertex="1" parent="1">
          <mxGeometry x="80" y="230" width="120" height="80" as="geometry" />
        </mxCell>
        <mxCell id="k6hbue_MvojI3MIXq5zp-45" style="edgeStyle=orthogonalEdgeStyle;rounded=0;orthogonalLoop=1;jettySize=auto;html=1;exitX=1;exitY=0.5;exitDx=0;exitDy=0;" edge="1" parent="1" source="k6hbue_MvojI3MIXq5zp-11">
          <mxGeometry relative="1" as="geometry">
            <mxPoint x="380" y="120" as="targetPoint" />
            <Array as="points">
              <mxPoint x="340" y="270" />
            </Array>
          </mxGeometry>
        </mxCell>
        <mxCell id="k6hbue_MvojI3MIXq5zp-11" value="print numbered list" style="shape=step;perimeter=stepPerimeter;whiteSpace=wrap;html=1;fixedSize=1;" vertex="1" parent="1">
          <mxGeometry x="210" y="230" width="150" height="80" as="geometry" />
        </mxCell>
        <mxCell id="k6hbue_MvojI3MIXq5zp-12" value="print &lt;br&gt;menu &lt;br&gt;options for user" style="shape=step;perimeter=stepPerimeter;whiteSpace=wrap;html=1;fixedSize=1;" vertex="1" parent="1">
          <mxGeometry x="560" y="230" width="130" height="80" as="geometry" />
        </mxCell>
        <mxCell id="k6hbue_MvojI3MIXq5zp-44" style="edgeStyle=orthogonalEdgeStyle;rounded=0;orthogonalLoop=1;jettySize=auto;html=1;exitX=1;exitY=0.5;exitDx=0;exitDy=0;entryX=0.117;entryY=0.563;entryDx=0;entryDy=0;entryPerimeter=0;" edge="1" parent="1" source="k6hbue_MvojI3MIXq5zp-13" target="k6hbue_MvojI3MIXq5zp-12">
          <mxGeometry relative="1" as="geometry" />
        </mxCell>
        <mxCell id="k6hbue_MvojI3MIXq5zp-13" value="user input for game they choose" style="shape=step;perimeter=stepPerimeter;whiteSpace=wrap;html=1;fixedSize=1;" vertex="1" parent="1">
          <mxGeometry x="380" y="230" width="160" height="80" as="geometry" />
        </mxCell>
        <mxCell id="k6hbue_MvojI3MIXq5zp-46" style="edgeStyle=orthogonalEdgeStyle;rounded=0;orthogonalLoop=1;jettySize=auto;html=1;exitX=0.5;exitY=1;exitDx=0;exitDy=0;" edge="1" parent="1" source="k6hbue_MvojI3MIXq5zp-14">
          <mxGeometry relative="1" as="geometry">
            <mxPoint x="590" y="320" as="targetPoint" />
          </mxGeometry>
        </mxCell>
        <mxCell id="k6hbue_MvojI3MIXq5zp-14" value="retrieve the game the user selected" style="shape=step;perimeter=stepPerimeter;whiteSpace=wrap;html=1;fixedSize=1;" vertex="1" parent="1">
          <mxGeometry x="400" y="350" width="120" height="80" as="geometry" />
        </mxCell>
        <mxCell id="k6hbue_MvojI3MIXq5zp-19" value="new game objects are created and sorted" style="whiteSpace=wrap;html=1;aspect=fixed;" vertex="1" parent="1">
          <mxGeometry x="260" y="350" width="80" height="80" as="geometry" />
        </mxCell>
        <mxCell id="k6hbue_MvojI3MIXq5zp-40" style="edgeStyle=orthogonalEdgeStyle;rounded=0;orthogonalLoop=1;jettySize=auto;html=1;" edge="1" parent="1" source="k6hbue_MvojI3MIXq5zp-20">
          <mxGeometry relative="1" as="geometry">
            <mxPoint x="810" y="280" as="targetPoint" />
          </mxGeometry>
        </mxCell>
        <mxCell id="k6hbue_MvojI3MIXq5zp-41" style="edgeStyle=orthogonalEdgeStyle;rounded=0;orthogonalLoop=1;jettySize=auto;html=1;exitX=0.5;exitY=1;exitDx=0;exitDy=0;entryX=0.5;entryY=1;entryDx=0;entryDy=0;" edge="1" parent="1" source="k6hbue_MvojI3MIXq5zp-20" target="k6hbue_MvojI3MIXq5zp-27">
          <mxGeometry relative="1" as="geometry" />
        </mxCell>
        <mxCell id="k6hbue_MvojI3MIXq5zp-42" style="edgeStyle=orthogonalEdgeStyle;rounded=0;orthogonalLoop=1;jettySize=auto;html=1;entryX=0.453;entryY=-0.037;entryDx=0;entryDy=0;entryPerimeter=0;" edge="1" parent="1" source="k6hbue_MvojI3MIXq5zp-20" target="k6hbue_MvojI3MIXq5zp-11">
          <mxGeometry relative="1" as="geometry">
            <Array as="points">
              <mxPoint x="830" y="280" />
              <mxPoint x="830" y="50" />
              <mxPoint x="278" y="50" />
            </Array>
          </mxGeometry>
        </mxCell>
        <mxCell id="k6hbue_MvojI3MIXq5zp-20" value="user inputs instructions to continue using app" style="whiteSpace=wrap;html=1;aspect=fixed;" vertex="1" parent="1">
          <mxGeometry x="720" y="240" width="80" height="80" as="geometry" />
        </mxCell>
        <mxCell id="k6hbue_MvojI3MIXq5zp-21" value="get data from odds shark" style="whiteSpace=wrap;html=1;aspect=fixed;" vertex="1" parent="1">
          <mxGeometry x="100" y="470" width="80" height="80" as="geometry" />
        </mxCell>
        <mxCell id="k6hbue_MvojI3MIXq5zp-27" value="program exits" style="ellipse;whiteSpace=wrap;html=1;" vertex="1" parent="1">
          <mxGeometry x="850" y="240" width="120" height="80" as="geometry" />
        </mxCell>
        <mxCell id="k6hbue_MvojI3MIXq5zp-33" value="" style="endArrow=classic;html=1;entryX=0.4;entryY=-0.037;entryDx=0;entryDy=0;entryPerimeter=0;exitX=0.4;exitY=1.013;exitDx=0;exitDy=0;exitPerimeter=0;" edge="1" parent="1" source="k6hbue_MvojI3MIXq5zp-9" target="k6hbue_MvojI3MIXq5zp-21">
          <mxGeometry width="50" height="50" relative="1" as="geometry">
            <mxPoint x="120" y="360" as="sourcePoint" />
            <mxPoint x="170" y="310" as="targetPoint" />
          </mxGeometry>
        </mxCell>
        <mxCell id="k6hbue_MvojI3MIXq5zp-34" value="" style="endArrow=classic;html=1;exitX=0.425;exitY=1.038;exitDx=0;exitDy=0;exitPerimeter=0;entryX=0.5;entryY=1;entryDx=0;entryDy=0;" edge="1" parent="1" source="k6hbue_MvojI3MIXq5zp-21" target="k6hbue_MvojI3MIXq5zp-19">
          <mxGeometry width="50" height="50" relative="1" as="geometry">
            <mxPoint x="360" y="360" as="sourcePoint" />
            <mxPoint x="410" y="310" as="targetPoint" />
            <Array as="points">
              <mxPoint x="130" y="600" />
              <mxPoint x="300" y="600" />
            </Array>
          </mxGeometry>
        </mxCell>
        <mxCell id="k6hbue_MvojI3MIXq5zp-35" value="" style="endArrow=classic;html=1;exitX=0.5;exitY=0;exitDx=0;exitDy=0;entryX=0.5;entryY=1;entryDx=0;entryDy=0;" edge="1" parent="1" source="k6hbue_MvojI3MIXq5zp-19" target="k6hbue_MvojI3MIXq5zp-11">
          <mxGeometry width="50" height="50" relative="1" as="geometry">
            <mxPoint x="360" y="360" as="sourcePoint" />
            <mxPoint x="410" y="310" as="targetPoint" />
          </mxGeometry>
        </mxCell>
        <mxCell id="k6hbue_MvojI3MIXq5zp-36" value="" style="endArrow=classic;html=1;exitX=0.5;exitY=1;exitDx=0;exitDy=0;entryX=0.5;entryY=0;entryDx=0;entryDy=0;" edge="1" parent="1" source="k6hbue_MvojI3MIXq5zp-13" target="k6hbue_MvojI3MIXq5zp-14">
          <mxGeometry width="50" height="50" relative="1" as="geometry">
            <mxPoint x="360" y="360" as="sourcePoint" />
            <mxPoint x="410" y="310" as="targetPoint" />
          </mxGeometry>
        </mxCell>
        <mxCell id="k6hbue_MvojI3MIXq5zp-38" value="" style="endArrow=classic;html=1;entryX=0;entryY=1;entryDx=0;entryDy=0;exitX=1;exitY=0.5;exitDx=0;exitDy=0;" edge="1" parent="1" source="k6hbue_MvojI3MIXq5zp-12">
          <mxGeometry width="50" height="50" relative="1" as="geometry">
            <mxPoint x="670" y="270" as="sourcePoint" />
            <mxPoint x="730" y="140" as="targetPoint" />
            <Array as="points">
              <mxPoint x="690" y="260" />
            </Array>
          </mxGeometry>
        </mxCell>
        <mxCell id="k6hbue_MvojI3MIXq5zp-50" style="edgeStyle=orthogonalEdgeStyle;rounded=0;orthogonalLoop=1;jettySize=auto;html=1;" edge="1" parent="1" source="k6hbue_MvojI3MIXq5zp-49" target="k6hbue_MvojI3MIXq5zp-13">
          <mxGeometry relative="1" as="geometry" />
        </mxCell>
        <mxCell id="k6hbue_MvojI3MIXq5zp-49" value="user control" style="rounded=1;whiteSpace=wrap;html=1;" vertex="1" parent="1">
          <mxGeometry x="380" y="90" width="120" height="50" as="geometry" />
        </mxCell>
        <mxCell id="k6hbue_MvojI3MIXq5zp-53" value="user control" style="rounded=1;whiteSpace=wrap;html=1;" vertex="1" parent="1">
          <mxGeometry x="670" y="80" width="120" height="60" as="geometry" />
        </mxCell>
      </root>
    </mxGraphModel>
  </diagram>
</mxfile>
